<?xml version="1.0" encoding="UTF-8"?>
<svg id="Layer_2" data-name="Layer 2" xmlns="http://www.w3.org/2000/svg" viewBox="0 0 746.87 738.95">
  <defs>
    <style>
      .cls-1 {
        fill: #1c3563;
      }
    </style>
  </defs>
  <g id="Layer_1-2" data-name="Layer 1">
    <g>
      <path class="cls-1" d="M189.7,697.33l-10.42,40.11-7.3-17.36c6.78-3.58,7.28-13.73,2.42-19.04-4.64-5.4-16.18-3.36-22.41-3.77v40.7s10.52-.02,10.52-.02l.06-15.55,5.42,15.54h22.25s1.28-5.74,1.28-5.74h7.56s1.12,5.73,1.12,5.73l11.39-.13-10.11-40.52-11.77.03ZM165.77,712.87c-.79.94-1.97,1.38-3.27,1.24v-8.02c3.8-.81,5.34,4.29,3.27,6.78ZM193.05,723.24l2.42-13.98,2,13.92-4.42.05Z"/>
      <rect class="cls-1" x="214.71" y="697.24" width="10.73" height="40.74"/>
      <path class="cls-1" d="M337.96,723.36l4.32.05c.62,5.14-5.85,7.47-7.54,1.9-3.39-10.3,1.65-26.96,7.29-14.87l10.05-4.06c-3.56-13.34-22.93-13.2-27.45-.53-4.46,11.72-2.17,32.86,13.43,32.94,14.74-.17,15.52-12.66,15.13-24.23l-15.3.02.07,8.78Z"/>
      <rect class="cls-1" x="214.41" y="633.26" width="11.02" height="39.77" transform="translate(-.86 .29)"/>
      <path class="cls-1" d="M73.35,649.87l-3.58-2.96c-1.02-.84-1.3-2.1-.72-3.05,1.7-2.76,6.02-.74,8.93,2.75l.02-11.98c-14.09-8.73-27.33,10.12-15.66,20.79,0,0,4.57,3.8,4.57,3.8,2.2,1.76.68,5.22-2.24,4.77-2.61-.31-4.52-1.87-6.44-4.05l-.02,12.31c15.94,7.91,28.69-10.89,15.14-22.38Z"/>
      <path class="cls-1" d="M93.8,723.34l4.28.05c-1,9.34-8.82,4.94-8.27-3.08-.17-3.88-.19-7.71,1.05-11.3,1.7-4.6,6.33-2.62,7.03,1.42l10.1-4.13c-3.67-13.14-22.4-13.18-27.24-.85-4.63,11.55-2.79,32.53,12.44,33.31,15.46.32,16.02-12.28,15.66-24.24l-15.1.05.05,8.77Z"/>
      <path class="cls-1" d="M138.97,672.59l.14-11.22c-16.07,11.79-16.08-27.82-.22-16.43l.04-11.42c-30.84-9.97-30.62,50.54.04,39.07Z"/>
      <polygon class="cls-1" points="125.48 697.23 125.46 707.9 131.29 707.94 131.29 737.95 142.23 737.85 142.25 707.91 148.27 707.9 148.26 697.24 125.48 697.23"/>
      <path class="cls-1" d="M250.3,673.13c12.48-4.72,13.24-30.36,2.89-38.05-7.08-5.26-16.86-2.57-20.74,5.2-7,12.78-.98,39.2,17.85,32.84ZM244.77,642.86c6.83.41,4.42,22.14.33,20.77-6.92-.98-4.31-22.01-.33-20.77Z"/>
      <rect class="cls-1" x="269.59" y="697.23" width="10.66" height="40.74"/>
      <polygon class="cls-1" points="307.28 697.26 307.38 717.23 297.9 697.28 287.12 697.27 287.13 737.93 297.64 737.96 297.52 718.21 307.06 737.92 318 737.85 317.96 697.28 307.28 697.26"/>
      <path class="cls-1" d="M292.99,633.31h-10.45c-.37,7.57.13,14.52.69,22.36l-8.27-22.36-10.29.05v39.91s10.34.02,10.34.02l-.35-20.94,7.93,20.9,10.43-.05-.03-39.88Z"/>
      <path class="cls-1" d="M57.96,696.49c-21.98,4.23-15.28,52.32,9.06,40.63,14.57-8.76,11.37-43.68-9.06-40.63ZM60.38,728.31c-6.7-.23-4.74-22.23-.73-21.71,7.49-.58,5.22,22.99.73,21.71Z"/>
      <polygon class="cls-1" points="252.44 717.44 242.91 697.3 232.2 697.26 232.26 737.97 242.76 737.94 242.56 718 252.14 737.96 262.75 737.84 262.76 697.27 252.15 697.26 252.44 717.44"/>
      <path class="cls-1" d="M20.44,673.3h11.15s-8.67-39.96-8.67-39.96h-12.97s-9.95,39.96-9.95,39.96h11.27s.98-5,.98-5l7.42.14.78,4.85ZM13.87,659.39l2.27-14.08,1.96,14.05-4.23.03Z"/>
      <polygon class="cls-1" points="534.37 633.3 515.13 633.3 515.15 673.15 526.15 673.1 526.16 657.66 534.08 657.63 534.06 648.33 526.31 648.32 526.29 642.85 534.4 642.83 534.37 633.3"/>
      <path class="cls-1" d="M54.43,663.77c1.94-7.5-3.23-12.82-8.9-16.71-4.22-5.33,4.3-6.07,8.06-.47v-12.05c-14.28-8.62-27.31,10.46-15.52,21.06,0,0,4.24,3.42,4.24,3.42,4.45,5.7-4.16,6.8-8.43,1.14l-.09,12.09c7.82,3.98,19.15,1.12,20.63-8.48Z"/>
      <path class="cls-1" d="M562.21,659.98l-.03,12.23c15.61,7.87,28.78-10.4,15.61-21.92,0,0-3.86-3.05-3.86-3.05-4.16-5.1,3.82-6.53,8.01-.55v-12.11c-14.29-8.48-27.14,10.19-15.52,20.92,0,0,4.7,4,4.7,4,1,.85,1.04,2.33.51,3.28-1.58,2.77-6.5.8-9.4-2.79Z"/>
      <path class="cls-1" d="M690.18,673.27l-.06-39.98-10.38.04c-.36,7.68.17,14.8.77,22.47-1.28-3.91-6.74-18.4-8.28-22.51l-10.41.04v39.96s10.31.02,10.31.02l-.05-20.2,7.75,20.22,10.34-.06Z"/>
      <path class="cls-1" d="M693.12,673.28l11.05.04.9-5.07,7.58.08.85,5.01,11.29-.06-8.94-39.93-12.85-.03-9.9,39.96ZM709.13,645.01l1.98,14.33h-4.24s2.26-14.33,2.26-14.33Z"/>
      <polygon class="cls-1" points="333.43 633.28 314.23 633.28 314.23 673.26 325.2 673.26 325.2 657.63 332.92 657.59 332.87 648.33 325.23 648.33 325.21 642.85 333.49 642.8 333.43 633.28"/>
      <path class="cls-1" d="M433.65,633.44l-14.27-.16v40.01s11,0,11,0l.02-13.19c19.3,2.93,21.65-25.69,3.26-26.66ZM430.35,651.05l-.03-9.06c6.1-.85,6.27,9.74.03,9.06Z"/>
      <path class="cls-1" d="M359.56,634.91c-22.37-12.98-30.93,27.13-14.86,37.13,22.09,11.54,29.48-26.84,14.86-37.13ZM354.61,661.24c-7.63,11.25-9.35-19.38-2.86-18.38,4.29-.19,4.91,11.57,2.86,18.38Z"/>
      <rect class="cls-1" x="143.47" y="633.28" width="10.94" height="40.03"/>
      <polygon class="cls-1" points="211.49 633.27 188.69 633.29 188.66 643.26 194.69 643.28 194.68 673.28 205.64 673.2 205.62 643.34 211.57 643.3 211.49 633.27"/>
      <path class="cls-1" d="M33.47,699.26c-5.01-2.71-13.47-1.9-19-2.01v40.67c10.26.09,23.28,1.18,26.56-11.31,2.66-9.51,1.88-22.63-7.57-27.36ZM25.15,727.93l-.02-21.16c8.78,1.58,8.36,21.01.02,21.16Z"/>
      <path class="cls-1" d="M12.39,584.55c12.84-.07,50.16.21,63.5-.08,1.48.4,2.17.15,2.61-1.11l14.17-40.72h89.07s14.16,40.86,14.16,40.86c.2,1.07.64,1.12,1.56,1.08,0,0,2.68-.02,2.68-.02,0,0,84.53.01,84.53.01.83,0,1.16.13,1.13-.77.03-11.95.02-66.12.02-79.12,36.28.21,84.18,4.17,107.2-30.26.03-.9,1.04-.68.71.1,0,.41.01,1.19.01,1.59-.01,16.77.01,90.22.02,108.39,38.9-2.28,113.77,8.28,147.88-14.31,60.63-31.64,83.38-115.59,43.4-172.05,0,0-.51-.74-.51-.74-.25-.36.12-.47.61-.46,0,0,11.37.03,11.37.03,0,0,21.88.01,21.88.01,4.82-2.24.07,185.16,1.69,185.96-.2,1.55.31,1.78,1.63,1.57,13.5-.32,47.61.29,60.72-.03.4-15.09.09-168.05.19-187.51h50.35c1.11.08,1.35-.18,1.21-1.22,0,0-.01-51.05-.01-51.05,0-.6-.29-.68-.8-.58l-32.12-.05c1.69-2.39,2.36-4.82,2.86-7.51,2.04-16.07,11.13-26.8,19.83-39.64,2.8-5.57,1.37-11.75-3.23-15.88-8.45-7.6-20.67-5.17-31.4-3.07-.84.38-19.66,2.03-15.99.14,11.62-12.52,28.68-21.53,30.04-40.43,2.85-25.56-10.96-56.44-16.63-81.04-6.47-27.65-14.88-52.96-42.86-65.57-5.56-3.69-19.67-7.19-18.12-15.4,2.87-8.83,18.87-5.34,8.71-27.67,1.78-3.82,6.02-3.35,7.83-8.33.59-1.61,4.64-2.4,7.49-9.99,3.72-11.55-7.71-22.83-17.17-28.08-7.35-3.69-15.86-.69-19.88,6.18-.23.07-11.2-8.88-28.72-4.79-10.15,2.63-22.3,8.85-23.53,20.37-.6,4.74-11.57,13.57-4.62,27.53,1.76,3.53,1.15,7.06-1.17,9.98-3.08,4.72,1.24,7.07,5.51,8.07.17,2.56-1.14,4.86,2.07,6.08-.22,1.88-.02,3.51,1.35,4.7,3.47,3,.31,7.46,3.06,10.29,7.98,4.56,13.09-8.27,27.68,10.37-4.17,3.04-7.57,6.39-10.94,10.07-24.07,32.76-65.18,41.13-100.02,57.3-21.37,9.16-37.65-12.34-54.88,12.47,0,0-7.54.49-7.54.49-10.58-4.15-18.05,7.11-28.64,7.73-6.35,1.23-15.87,1.92-21.53,5.1-5.1,2.7-9.5,6.06-13.48,10.23-3.2,3.26-15.29,14.06-19.23,9.11-3.09-5.77-8.85-17.88-11.53-23.89-1.82-3.94-10.85-9.19-15.95-11.36,3.71-.29,7.49.3,11.08,2.32l-1.64-15.89c-.66-6.42-1.24-9.29,5.81-13.64,15.45-11.24,42.49-7.77,33.88-28.05,4.96-11.39,6.35-20.54-10.39-17.09,0,0-15.94,2-15.94,2-8.05,2.05-10.6-7.11-17.83-6.99,0,0-11.37.3-11.37.3-8.07-11.66-11.16-13.01-10.53-28.08-8.33,8.81-2.52,23.45.33,34.67-3.96-2.65-4.69-7.29-5.84-11.35-32.35-28.89-23.54-1.12-11.98,20.95,2.15-3.15,5.23-5.7,9.04-6.76-3.67,3.16-6.96,6.56-8.57,11.29-2.46,7.26-12.42,36.66-14.95,43.12-3.42,7.54-7.67,16.01-16.69,17.57-49.93,16.39-92.36-9.67-130.73,37.21-18.43,17.74-37.45,35.98-62.87,42.89,5.69,4.09,12.87,3.24,17.8-.9.03,2.47-7.82,7.98-5.45,7.11,5.29.03,10.31-1.29,14.65-4.26-.92,5.43-3.67,4.45,3.79,2.61,9.35-3.64,17.82-9.38,24.5-16.88.51-.81,1,.21.43.52.15.59-.53,3.29-.6,3.9,11.85-5.85,10.28-21.6,19.85-29.76-10.07,20.71,2.38,54.79-24.24,65.12-4.9,1.87-11.03,5.31-9.77,10.21,1.83,8.37,3.67,18.11.75,26.32-1.62,1.4-2.67,2.77-2.28,5.21,1.73,5.49.19,20.04,8.55,20.36-19.7,58.15-69.27,176.49-87.04,232.91ZM109.1,495.09l28.03-79.15c7.02,19.67,20.99,59.39,27.86,79.15h-55.88ZM338.28,438.75c-8.29,19.44-35.43,15.03-52.41,15.5v-60.01c10.13.38,28.43-1.22,37.87,2.7,17.02,5.04,20.42,27.36,14.54,41.81ZM536.82,484.7c-9.65,37.33-45.17,49.29-80.26,46.56l.04-134.27c10.29.05,23.41-.53,33.36,2.03,38.05,7.3,57.24,50.35,46.87,85.68ZM568.43,378.08c-35.39-33.97-69.93-35.31-115.95-34.16,16.62-4.3,31.45-13.62,42.84-26.4.17,13.39,6.16,23.65,19.75,25.09,10.01.6,43.94,3.04,53.39,2.45l-.03,33.01ZM632.59,330.83l24.67-7.85c12.59-4.44,16.28-.36,7.75,10.31-3.6,3.15-9.02,6.22-11.28,10.8h-69.23s-4.13-.35-4.13-.35c15.06-1.42,37.42-8.87,52.22-12.92ZM588.91,218.52c3.22-7.26,6.51-14.09,11.38-20.85.7,7.13.71,14.12-.57,21.06l-3.25,9.49c-2.36,4.98,1.01,7.54.99,11.93-10.92,4.86-45.13,27.8-55.92,34.25,3.27-8.39,10.07-14.24,17.36-18.72,15.34-8.82,23.13-20.33,30.01-37.14ZM489.22,186.7c11.38-2.4,35.32-7.12,46.65-8.89,16.49-2.75,31.14-10.94,46.57-17.87-14.63,42.29-34.79,82.57-67.43,113.91,4.51-35.9-13.94-69.04-44.82-84.64l19.04-2.51ZM491.25,222.4c-.12,1.46-1.38.1-1.86-.23-.41-.31-1.03-.65-1.08-1.03-.07-.58.73-1.25,1.14-.93.01,1.09.59,1.97,1.8,2.19ZM457.38,218.72c1.05-.28,6.66.09,7.27-.94.66-1.43-2.26-2.53-1.35-5.65.32-1.08,1.61-1.89,3.07-1.9,3.8-.02,3.48-4.03,6.72-5.5,4.04,2.75,7.63,5.61,10.76,9.29-1.44-.16-2.46-.82-3.77-.11.7,2.99,2.94,5.88,5.12,1.94,1.17.37,1.95,1.2,2.67,2.22-1.7,1.32-2.03,2.36-.1,3.47l-1.93.59c1.78,2.82-2.51,3.59-4.46,1.46,1.2-.23,1.99.1,3.35-.78-1.99-3.12-5.81-4.08-8.27-7.11-.97,2.08-2.47,2.29-4.35,2.57-6.4,2.2-3.11,12.34-15.37,8.34-2.09-3.42-2.22-7.72.63-7.89ZM446.19,245.13c2.15-2.52,9.43-6.66,8.57-10.67-.23-1.96.98-3.65,2.93-4.12l11.4-2.76,7.67-1.95c3.19-.52,2,3.01,2.98,4.75,9.51,4.53,11.22-2.25,15.46-.82,13.23,23.33,11.12,53.72-4.96,75.17-1.55-2.04.78-4.57-.24-7.28-8.95-1.87,3.22-10.15-3.92-17.25,0,0-4.2-4.52-4.2-4.52-1.12-1.2.93-5.75-.53-7.26-1.84-1.91-4.25.16-6.34-1.91-3.68-3.82-7.05,2-11.04,1.16-2.88-.4-6.21,2.6-8.45.43-2.37-2.87-9.34-7.09-8.57-11.55.05-1.31-.72-3.04.1-4.32.41-.64,1.26-1.11,1.23-1.91-.38-2.66-4.76-2.54-2.11-5.19ZM438.78,226.99c.47,1.18-2.49.62-2.2,3.14-1.2-.56-2-.9-3.03-1.86,2.92-.12,4.68-2.65,5.23-1.29ZM430.26,229.02c.27-.32.5-.92,1.59-.61-.11.99-1.97,2.94-1.59.61ZM366.78,234.34c5.85-13.08,15.85-23.88,27.77-31.65.92,3.75-3.57,2.82-5.34,4.45-1.76,5.42,9.95-.02,9.64-1.7-.05-.99-2.06-1.34-2.07-2.77,2.47-.41,4.84-.92,7.43-.6-4.27,2.66-1.86,6.37,2.07,3.83-4.29-3.83,5.6-6.18,8.28-5.56,0,0,6.89,1.74,6.89,1.74.18,1.45.77,2.77,2.42,3.14,3.57,2.41-2.4,2.28-3.56,3.5,0,0-.85,1.78-.85,1.78-3.51-.76-11.1.53-3.53-4.04,2.98-3.65-6.49-2.71-7.9.13,0,0-2.73,1.2-2.73,1.2.76,1.64-1.13,1.03-1.45,1.73.9,1.67-1.06,2.47-2.43,1.77l-.4-1.62c-5.72.64-13.24,5.96-9.76,9.2,2.69,2.51,5.77-.23,7.17,3.46.26.69.79,2.42,1.63,2.49,1.77.14.85-4.74,4.41-5.36.76-.13,1.51-.48,1.79-.94.96-1.59-1.09-6.17,1.7-6.79,2.15-.48,4.43.2,6.68.17-.63,6.02,3.57,1.07,6.15,2.02.57.3.45,1.19.65,1.75.7,1.97,3.94,1.68,4.45,3.02-.04,2.7-4.38,3.18.96,5.79-1.19,2.15-3.06,1.38-5.63.25l1.36-2.46c-1.94-1.64-4.21,2.17-5.85,1.03-4.77-3.55-7.4,3.11-1.87,1.15-.37,3.36-4.08-.72-6.66,3.85-1.42,2.84-8.53,7.15-10.9,9.22v4.03c-3.08,1.27-5.86,3.02-7.91,5.73l.77,3.89c-2.29,1.66-4.9-.41-4.31-3.39-3.98.86-13.68.91-16.57,4.41-5.72,5.07-3.68,12.47,4.37,9.47,1.53-1.26,3.02-3.12,5.28-3.07,1.12.03-.2,4.06,2.37,4.19,4.42.22,2.13,5.08,4.69,5.88l4.05,1.26c7.23,1.42,4.77-7.18,13.1-4.26,7.15,4.61,8.5-3.62,14.95,2.96,2.82,2.2,7.31-1.15,9,2.79l2.06,4.8,6.42.8c4.92.61,7.45-2.5,9.53.04,1.37,1.69,3.14,2.6,5.26,3.04-.26,4.28-5.26,4.8-4.6,12.41.26,3.04-1.02,5.65-4.03,6.28-1.34.47-6.12.71-6.72,2.28-1.12,1.63,2.06,4.74-.76,8.47-2.64,3.63-5.9,7.24-9.93,9.39-2.45,1.57-3.84,1.41-4.35,2.03-.78,1.36,1.74.98,2.35,1.11-.5,1.78-2.47,2.67-2.11,3.78.39,1.21,2.75.48,3.57,1.19,1.09.94-1.5,4.38,3.23,7.32-5.9.13-11.65-1.3-14.4-6.87-1.62-2.09,1.09-5.18-1.56-7.68-3.89-3.67.07-7.42-4.13-10.13,1.26-19.56-5.48-9.11-11.01-16.65-2.92-3.95-7.3-3.59-7.83-8.91-.38-3.78,1.64-6.31,4.87-8,1.21-.64.23-3.12-.46-3.94-2.21-2.64-7.18.92-9.78-1.36-3.19-2.8-7.1-4.36-11.44-4.12-.89-5.01-4.61,1.37-10.54-1.66-.21-10.66,1.5-21,6.03-30.68ZM302.47,307.84c1.74-22.37-2.56-49.32,12.65-67.85-2.66-1.58-5.47-1.94-8.67-2.29,15.06-7.8,25.52,12.58,36.7,3.31,3.27-3.15,9.95-9.41,13.29-12.48-21.87,45.95,5.76,103.7,55.28,115.35l-17.92.32-.06,31.19c-15.23-23.02-40.02-30.46-66.6-31.22-7.29-16.22-24.5-.79-24.68-36.33ZM150.45,309.65c2.44-18.64,30.39-15.14,33.72-49.16,3.52.66,2.3,6.19,1.58,11.09,11.88-5.58,27.11.31,39.15,2.31,20.96,3.31,39.25,1.43,60.45-2.01,0,9.67.15,30.69.63,40.15,1.68,9.43,8.4,16.84,10.29,26.24,0,0,2.36,5.82,2.36,5.82l-75.46.06-.12,135.51c-10.98-30.75-39.74-99.62-49.1-131.38-.07-1.26-1.6-3.61-2.96-4-14.31-3.84-20.58-20.93-20.54-34.62ZM105.19,333.43c3.54-21.22,4.62-26.45,23.39-38.3,3.86-2.83,13.48-8.55,15.6-13.05.2,9.05-4.41,17.53-11.5,22.93-4.37,3.19.77,9.57,2.19,12.91,3.18,6.24,4.7,13.03,6.42,19.81.64,2.9,2.36,4.83,4.97,6.32l-37.6.08c-2.69-2.77-4.24-6.76-3.48-10.7Z"/>
      <path class="cls-1" d="M167.12,633.3l-9.82,39.94h11.22s.9-5.06.9-5.06h7.3s.82,5.02.82,5.02l11.3.02-9.02-39.96-12.68.04ZM171.05,659.17l2.19-14.16,2.05,14.28-4.25-.12Z"/>
      <path class="cls-1" d="M93.65,632.9c-20.54,5.11-12.26,53.9,12.11,38.22,12.06-10.23,8.12-42.88-12.11-38.22ZM97.27,663.67c-5.59.23-5.4-20.32-.32-20.79,6.92.54,4.48,22.23.32,20.79Z"/>
      <rect class="cls-1" x="611.43" y="633.28" width="11.08" height="40.02"/>
      <path class="cls-1" d="M504.69,636.15c-19.42-14.67-30.45,15.65-21.59,30.32,19.06,24.64,37.73-13.96,21.59-30.32ZM495.51,663.63c-6.91-.93-4.24-21.98-.32-20.78,6.78.48,4.49,22.13.32,20.78Z"/>
      <polygon class="cls-1" points="527.34 697.25 527.44 717.16 518.05 697.24 507.32 697.27 507.33 737.91 517.81 737.97 517.63 717.99 527.17 737.92 537.92 737.94 537.89 697.27 527.34 697.25"/>
      <path class="cls-1" d="M656.55,645.64c-1.76-12.62-18.62-18.39-25.94-6.92-6.11,9.38-5.26,27.96,4.74,33.6,16.62,8.44,25.32-12.88,21.2-26.68ZM642.25,663.67c-4.58,1.74-6.85-19.34-.32-20.76,6.78.88,4.26,22.1.32,20.76Z"/>
      <path class="cls-1" d="M630.59,696.31c-21.18-.93-22,41.19-1.66,42.44,21.58,1.34,22.22-41.48,1.66-42.44ZM629.88,728.28c-6.97-1.1-4.46-24.25.39-21.66,6.23,2.57,4.15,22.59-.39,21.66Z"/>
      <rect class="cls-1" x="373.08" y="697.24" width="10.68" height="40.74"/>
      <polygon class="cls-1" points="594.87 697.24 571.92 697.26 571.86 707.91 577.9 707.95 577.85 737.92 588.74 737.92 588.73 707.92 594.93 707.9 594.87 697.24"/>
      <path class="cls-1" d="M551.8,697.23l-10.68,40.7h11.13s1.17-5.69,1.17-5.69l7.7.02,1.08,5.68h11.38s-10.07-40.66-10.07-40.66l-11.72-.06ZM555.06,723.24l2.22-13.98,2.3,14-4.51-.02Z"/>
      <path class="cls-1" d="M502.37,708.98c-.49-13.57-16.26-11.78-25.84-11.71v40.68s10.53-.01,10.53-.01l.09-15.59,5.65,15.6,11.39-.11-7.53-17.66c4.12-2.33,5.98-6.53,5.72-11.19ZM490.15,713.08c-.76.69-1.83,1.08-3.02.86v-7.86c4.06-.56,5.45,4.37,3.02,7.01Z"/>
      <rect class="cls-1" x="598.76" y="697.23" width="10.78" height="40.71"/>
      <polygon class="cls-1" points="558.25 663.33 549.33 663.36 549.33 657.65 557.54 657.57 557.49 648.36 549.27 648.27 549.32 642.84 558.13 642.83 558.14 633.3 538.49 633.3 538.41 673.12 558.26 673.1 558.25 663.33"/>
      <path class="cls-1" d="M607.25,662.87c1.47-7.28-4.04-12.1-9.31-15.9-1.02-.83-1.18-2.14-.66-3.06,1.59-2.83,6.11-.69,8.97,2.75v-12.07c-14.05-8.43-27.26,9.8-15.85,20.63,0,0,4.56,3.81,4.56,3.81,4.62,5.81-4.28,6.8-8.55.96v12.28c8.52,3.97,19.72,1.03,20.84-9.4Z"/>
      <path class="cls-1" d="M694.41,697.3l-10.52,40.62,11.15.02,1.27-5.71,7.55.08,1.07,5.63h11.4s-10.12-40.71-10.12-40.71l-11.8.07ZM697.95,723.23c.42-.91,1.44-13.47,2.5-13.51l1.81,13.46-4.31.05Z"/>
      <polygon class="cls-1" points="447.78 697.24 425.15 697.25 425.17 707.84 430.98 707.89 430.99 737.95 441.84 737.85 441.81 707.9 447.84 707.89 447.78 697.24"/>
      <polygon class="cls-1" points="410.61 697.27 410.8 717.31 401.19 697.27 390.53 697.27 390.54 737.91 401.11 737.92 400.94 718.03 410.58 737.96 421.31 737.85 421.23 697.27 410.61 697.27"/>
      <path class="cls-1" d="M392.29,656.49c11.37-5.48,5.34-24.19-6.8-23.12,0,0-13.81-.06-13.81-.06l.03,40h10.73s.18-15.42.18-15.42l5.74,15.37,11.79-.07-7.86-16.7ZM387.5,646.94c-.24,2.84-2.49,4.66-5.05,4.23l.02-8.88c3.02-.27,5.35,1.46,5.02,4.65Z"/>
      <path class="cls-1" d="M460.45,657.42l5.91,15.88,11.74-.18-7.76-16.58c7.29-3.21,7.66-13.07,3.06-19.02-4.52-6.15-17.22-3.73-23.67-4.23v39.98s10.69.03,10.69.03l.04-15.88ZM465.36,645.32c.72,3.28-1.56,6.19-4.94,5.94v-9c2.09-.18,4.45.65,4.94,3.06Z"/>
      <polygon class="cls-1" points="462.55 722.17 470.41 722.11 470.38 712.68 462.48 712.67 462.47 706.9 471.38 706.89 471.36 697.25 451.64 697.26 451.64 737.94 471.67 737.96 471.68 727.88 462.55 727.86 462.55 722.17"/>
      <polygon class="cls-1" points="729.77 727.12 729.78 697.25 719.09 697.26 719.08 737.95 737.13 737.97 737.1 727.12 729.77 727.12"/>
      <polygon class="cls-1" points="669.83 697.26 670.07 717.53 660.71 697.28 650.04 697.26 650.04 737.94 660.47 737.96 660.37 717.98 669.75 737.96 680.58 737.85 680.53 697.27 669.83 697.26"/>
      <polygon class="cls-1" points="738.57 663.57 738.54 633.33 727.63 633.29 727.61 673.31 746.87 673.42 746.87 663.73 738.57 663.57"/>
    </g>
  </g>
</svg>